<svg xmlns="http://www.w3.org/2000/svg" viewBox="0 0 430.49 713.56"><defs><style>.cls-1{fill:#75b443;}.cls-2{fill:#1b8281;}</style></defs><g id="Layer_2" data-name="Layer 2"><g id="Layer_1-2" data-name="Layer 1"><path class="cls-1" d="M297.08,638.61,215.2,713.56l-14.38-13.1c13.87-29.34,14.72-58.65-.15-87.53-14.74-28.62-38.84-45-70.92-50.67,2.25-16.21,4.29-31.94,6.81-47.6.24-1.49,3.35-3.27,5.35-3.61,40.14-7,70.58-37.09,77.81-77.29s-12.69-81.54-48.8-100c-6.48-3.32-8.34-6.19-7.11-13.52,3.9-23.21,6.76-46.59,10-69.9a26,26,0,0,1,.89-3.15l28.19,7c1.48,7.61,2.31,15.47,4.57,22.9,9,29.45,27.68,50.33,56.4,61.75,4.19,1.67,5.8,3.95,6.38,8.13,5.16,37.31,10.37,74.61,15.87,111.87.66,4.48-2,5.3-4.65,6.85C257,480.13,241.32,501.13,235.61,529c-8.84,43.23,12,85.13,51.51,104.72C290.1,635.23,293.11,636.67,297.08,638.61Z"/><path class="cls-1" d="M222.8,97.15,393,0C405.56,18.82,418,37.21,430,55.85c1.08,1.67.3,5.12-.57,7.38q-32.86,85.67-66,171.23c-5.15,13.32-10.37,26.6-16,41.13Z"/><path class="cls-1" d="M82.89,275.69c-9.36-24.28-18.1-47-26.88-69.72Q28.65,135.13,1.18,64.32C-.62,59.7-.49,56.24,2.45,52c11.72-17,23-34.2,34.85-52L207.53,97.13Z"/><path class="cls-2" d="M215.18,113.29c17.75,25.54,34.2,50.39,52,74.23,6.85,9.18,8.06,16.26.71,25a32.32,32.32,0,0,0-6.08,10.4c-4.42,13.53-16.16,14.75-27.31,16.62a104.87,104.87,0,0,1-54.87-5.47,18.64,18.64,0,0,1-8.32-6.94c-5.06-7.65-9.53-15.69-13.94-23.74-.89-1.63-1.46-4.59-.59-5.86C175.9,169.66,195.24,142,215.18,113.29Z"/><path class="cls-2" d="M139.62,494.42q10.51-74.13,21-148c31.11,11.7,50.94,48,45.8,83.23C201.52,463,171.59,492.42,139.62,494.42Z"/><path class="cls-2" d="M288.41,479.48c2.63,18.32,5.15,35.74,7.63,53.17q5.82,40.89,11.6,81.78c1.11,7.7-2.21,10.58-9.61,7.77-27.91-10.58-45-30.79-49.93-60-5.13-30.69,5.39-56.16,29.84-75.62C281,484.13,284.48,482.13,288.41,479.48Z"/><path class="cls-2" d="M188.29,690.07c-22.18-20.31-44-40.19-65.61-60.23a7.06,7.06,0,0,1-1.92-5.3c2.08-16.14,4.43-32.23,6.7-48.31C176.66,580.44,213.79,637.65,188.29,690.07Z"/><path class="cls-2" d="M265.63,321.65C235,308,218.2,285.38,214.91,253.13L255,247.18C258.41,271.07,261.94,295.83,265.63,321.65Z"/></g></g></svg>